<svg width="23" height="23" viewBox="0 0 23 23" fill="none" xmlns="http://www.w3.org/2000/svg">
<g clip-path="url(#clip0_4872_2497)">
<rect x="0.0869141" y="0.534485" width="21.9655" height="21.9655" rx="4.7069" fill="#D4009B"/>
<path d="M16.5608 7.20258C16.5608 7.85247 16.034 8.37931 15.3841 8.37931C14.7342 8.37931 14.2074 7.85247 14.2074 7.20258C14.2074 6.55269 14.7342 6.02586 15.3841 6.02586C16.034 6.02586 16.5608 6.55269 16.5608 7.20258Z" fill="white"/>
<path fill-rule="evenodd" clip-rule="evenodd" d="M11.0694 15.4397C13.2357 15.4397 14.9919 13.6835 14.9919 11.5172C14.9919 9.35095 13.2357 7.59482 11.0694 7.59482C8.90315 7.59482 7.14702 9.35095 7.14702 11.5172C7.14702 13.6835 8.90315 15.4397 11.0694 15.4397ZM11.0694 13.8707C12.3692 13.8707 13.4229 12.817 13.4229 11.5172C13.4229 10.2175 12.3692 9.16379 11.0694 9.16379C9.76966 9.16379 8.71599 10.2175 8.71599 11.5172C8.71599 12.817 9.76966 13.8707 11.0694 13.8707Z" fill="white"/>
<path fill-rule="evenodd" clip-rule="evenodd" d="M3.22461 11.2034C3.22461 8.56733 3.22461 7.24928 3.73763 6.24242C4.1889 5.35676 4.90896 4.6367 5.79462 4.18543C6.80148 3.67241 8.11953 3.67241 10.7556 3.67241H11.3832C14.0193 3.67241 15.3374 3.67241 16.3443 4.18543C17.2299 4.6367 17.95 5.35676 18.4012 6.24242C18.9143 7.24928 18.9143 8.56733 18.9143 11.2034V11.831C18.9143 14.4671 18.9143 15.7852 18.4012 16.7921C17.95 17.6777 17.2299 18.3978 16.3443 18.849C15.3374 19.3621 14.0193 19.3621 11.3832 19.3621H10.7556C8.11953 19.3621 6.80148 19.3621 5.79462 18.849C4.90896 18.3978 4.1889 17.6777 3.73763 16.7921C3.22461 15.7852 3.22461 14.4671 3.22461 11.831V11.2034ZM10.7556 5.24137H11.3832C12.7272 5.24137 13.6408 5.24259 14.3469 5.30029C15.0348 5.35649 15.3866 5.45836 15.632 5.58339C16.2224 5.88423 16.7024 6.36427 17.0033 6.95472C17.1283 7.2001 17.2302 7.55187 17.2864 8.23973C17.3441 8.9459 17.3453 9.8595 17.3453 11.2034V11.831C17.3453 13.175 17.3441 14.0886 17.2864 14.7947C17.2302 15.4826 17.1283 15.8344 17.0033 16.0798C16.7024 16.6702 16.2224 17.1502 15.632 17.4511C15.3866 17.5761 15.0348 17.678 14.3469 17.7342C13.6408 17.7919 12.7272 17.7931 11.3832 17.7931H10.7556C9.4117 17.7931 8.4981 17.7919 7.79193 17.7342C7.10407 17.678 6.7523 17.5761 6.50692 17.4511C5.91648 17.1502 5.43643 16.6702 5.13559 16.0798C5.01056 15.8344 4.90869 15.4826 4.85249 14.7947C4.7948 14.0886 4.79357 13.175 4.79357 11.831V11.2034C4.79357 9.8595 4.7948 8.9459 4.85249 8.23973C4.90869 7.55187 5.01056 7.2001 5.13559 6.95472C5.43643 6.36427 5.91648 5.88423 6.50692 5.58339C6.7523 5.45836 7.10407 5.35649 7.79193 5.30029C8.4981 5.24259 9.4117 5.24137 10.7556 5.24137Z" fill="white"/>
</g>
<defs>
<clipPath id="clip0_4872_2497">
<rect width="21.9655" height="21.9655" fill="white" transform="translate(0.0693359 0.517242)"/>
</clipPath>
</defs>
</svg>
