<svg width="70" height="53" viewBox="0 0 70 53" fill="none" xmlns="http://www.w3.org/2000/svg">
<path d="M69.7063 35.9333C69.7063 36.0733 69.4463 36.2433 69.3963 36.3633C69.3163 36.5433 69.3363 36.7433 69.2963 36.9233C69.2263 37.2733 69.0863 37.5933 69.0063 37.9233C68.9063 38.3833 69.0863 38.7933 68.5463 38.9133C68.2963 38.9733 67.5963 38.9133 67.6363 38.6133C66.8663 38.3233 66.1263 38.4233 66.0063 39.4133C65.9763 39.7033 65.8563 40.2733 65.9663 40.5433C66.0863 40.8433 66.5763 41.0933 66.7963 41.2733C66.7463 41.4333 66.7463 41.6233 66.8163 41.8033C67.0363 41.8733 67.1963 42.0433 67.3963 42.1533C67.5063 42.6733 67.0263 43.1733 66.7463 43.4933C66.2263 43.5133 65.9163 43.4133 65.4663 43.2933C65.1763 42.6233 64.4663 43.2533 64.2163 43.5833C63.9563 43.9233 63.9663 43.8833 64.2163 44.2833C64.4263 44.5833 64.4763 44.6233 64.5063 45.0033C64.6263 46.1533 63.3863 45.6133 62.6663 45.8933C61.9363 46.2133 61.6863 47.0833 60.8763 47.1433C60.3863 47.1733 59.9863 47.0133 59.8263 47.5933C59.6663 48.1433 59.9163 48.2633 59.1763 48.3333C58.7763 48.3733 58.3263 48.2133 57.9763 48.2333C57.5863 48.2633 57.2463 48.5133 56.8463 48.5733C56.8463 48.3733 56.7863 48.1733 56.7363 47.9933C56.4863 47.9333 56.2663 47.8233 56.3363 47.5433C56.7063 47.4233 58.1563 47.6933 58.0663 47.1433C57.3963 47.1133 56.7663 47.2133 56.0963 47.1733C56.0063 46.0233 57.6563 46.7033 58.4263 46.4233C58.4463 45.7833 58.3363 45.3733 58.1163 44.8133C57.9963 44.4933 57.8263 44.3133 57.6663 44.0033C57.5463 43.7733 57.5763 43.5533 57.4663 43.3133C57.2663 43.2333 57.1663 43.0833 56.9763 42.9633C56.7463 42.8233 56.5563 42.8233 56.3363 42.7133C56.1463 42.6233 56.0163 42.4433 55.8163 42.3633C55.5763 42.2733 55.2863 42.3833 55.0463 42.2933C54.8663 42.2333 54.7463 42.0333 54.5363 41.9533C54.3463 41.8833 54.0963 41.9133 53.8963 41.8933C53.5363 41.8433 53.0763 41.8333 52.8063 41.5433C52.5663 41.2833 52.5663 40.8333 52.3963 40.5033C52.1663 40.0333 51.9463 40.1033 51.5063 39.8933C51.1463 39.7333 50.9963 39.5733 50.6063 39.5033C50.1863 39.4233 49.7963 39.4133 49.3563 39.4133C48.4363 39.4133 47.7063 39.5633 46.8663 39.7133C45.9763 39.8633 45.0963 39.9533 44.1763 39.9533C43.2563 39.9633 42.6063 40.3033 41.7863 40.6233C41.2763 40.8233 40.7763 41.0133 40.3063 41.2633C39.6663 39.1233 38.7563 37.0333 38.7363 34.6633C39.0463 34.6633 39.7463 34.4133 39.9863 34.1933C40.3463 33.8633 40.2563 33.4533 40.2563 32.9233C40.2463 31.9833 39.9463 31.2433 39.9263 30.2333C40.0463 30.2433 40.1763 30.2533 40.2863 30.2833C40.8063 30.4033 40.9563 30.8233 41.5063 30.8733C41.9563 30.9033 42.3463 30.7933 42.6363 31.2233C43.1563 31.2433 43.2063 31.1933 43.5763 30.9333C43.9263 30.7033 44.1163 30.4833 44.5263 30.3833C44.9163 30.2733 45.3863 30.2733 45.8163 30.2733C46.0163 30.2733 46.1663 30.2733 46.2763 30.2533C46.5063 30.5533 46.9663 30.9533 47.2463 31.3033C47.6363 31.8133 47.6963 32.1033 48.3563 32.1933C49.0263 32.2833 49.5563 32.1633 50.0963 31.9433C50.6263 31.7233 50.9963 31.4233 51.6663 31.4833C52.2363 32.3133 53.5763 31.2633 54.1263 30.9833C55.0163 30.5333 55.8663 30.1533 56.9263 30.2133C56.9563 30.8033 56.8063 30.9633 57.3363 31.1333C57.7163 31.2533 58.2163 31.0933 58.6063 31.0633C58.9263 31.0533 59.6263 30.9433 59.9263 31.0633C60.1163 31.1433 60.4663 31.5933 60.6463 31.7533C61.1263 32.1633 61.9963 32.4533 62.3163 32.9233C62.4863 33.1633 62.5263 33.6733 62.6363 33.9433C62.7663 34.2533 63.0463 34.5733 63.0663 34.9133C63.2763 35.1333 63.5963 35.6333 63.9363 35.8333C64.3463 36.0833 64.9463 35.9833 65.4463 35.9833C66.3363 35.9833 67.1663 35.8733 67.7263 35.2333C68.2363 35.7533 69.7063 35.3233 69.7063 35.9333Z" fill="#F4A76F"/>
<path d="M68.4962 27.3133C68.5362 27.7233 68.0862 27.8733 67.9462 28.1933C67.3262 28.3633 67.0162 29.8133 66.9562 30.3933C66.8862 31.1133 66.7662 32.4033 66.9562 33.0833C67.0662 33.4233 67.4762 33.6433 67.6062 33.9833C67.7562 34.3433 67.4862 34.7533 67.6162 35.0733C67.6362 35.1433 67.6862 35.2033 67.7362 35.2333C67.1662 35.8733 66.3362 35.9833 65.4462 35.9833C64.9462 35.9833 64.3562 36.0933 63.9362 35.8333C63.5962 35.6433 63.2762 35.1333 63.0662 34.9133C63.0462 34.5833 62.7662 34.2533 62.6462 33.9433C62.5262 33.6733 62.4962 33.1733 62.3162 32.9233C61.9962 32.4533 61.1362 32.1633 60.6462 31.7533C60.4762 31.6033 60.1162 31.1533 59.9362 31.0733C59.6362 30.9433 58.9262 31.0533 58.6062 31.0733C58.2262 31.0933 57.7162 31.2533 57.3362 31.1333C56.8062 30.9633 56.9562 30.8033 56.9362 30.2133C55.8662 30.1533 55.0162 30.5333 54.1262 30.9833C53.5862 31.2633 52.2362 32.3133 51.6662 31.4833C50.9962 31.4233 50.6362 31.7233 50.0962 31.9433C49.5562 32.1633 49.0262 32.2933 48.3562 32.1933C47.7062 32.1033 47.6462 31.8133 47.2462 31.3133C46.9762 30.9633 46.5162 30.5633 46.2862 30.2533C46.4762 30.2233 46.5962 30.1333 46.8062 29.8733C47.1362 29.4733 47.1962 29.2633 47.2162 28.7333C47.2662 27.9333 47.2062 27.2233 46.7062 26.6433C46.4862 26.3933 45.9462 25.9433 46.2262 25.4933C46.3862 25.2133 46.9762 25.3033 47.3062 25.2933C47.5262 24.6933 47.1862 24.3533 47.9262 24.1633C48.4662 24.0233 48.9362 23.8733 49.5062 23.8433C49.7062 23.3433 49.5462 22.5333 49.3162 22.1133C49.0962 21.6833 48.9562 21.9933 48.6562 21.7633C48.4162 21.5733 48.4362 21.0933 48.7162 20.9133C49.1162 20.6333 49.2262 21.0533 49.4162 21.1533C49.6762 21.2833 49.8962 21.2933 50.1562 21.3633C50.4362 21.4333 50.6562 21.4633 50.8362 21.7133C51.0162 21.9433 50.8962 22.1933 51.1962 22.3133C51.4062 23.1633 51.5662 23.9033 52.5662 24.1033C52.3762 23.9233 52.2662 23.4733 52.0962 23.2033C51.9462 22.9633 51.6262 22.7033 51.6962 22.4033C51.7362 22.1633 52.0062 22.1233 52.1062 21.9733C52.2262 21.7933 52.2562 21.6533 52.3162 21.4733C52.4562 21.0233 52.4262 20.8533 52.2862 20.4233C52.2362 20.4033 52.1662 20.4033 52.1062 20.4033C51.9762 20.0233 51.5162 20.3533 51.3062 20.1033C51.0662 19.7733 51.3762 19.6433 51.6562 19.6133C52.0062 19.5733 52.1762 19.8033 52.4962 19.8633C52.7762 19.9233 53.1262 19.8733 53.3862 19.9033C53.4562 18.9933 51.1062 18.8833 50.4662 18.9233C50.3362 19.2833 50.0962 19.8533 50.1462 20.2533C49.2462 20.1233 49.1262 18.3033 49.5262 17.6333C49.9662 17.6333 50.2362 17.4033 50.6562 17.3233C51.0362 17.2533 51.3862 17.3433 51.7262 17.1833C52.0162 17.0533 52.3362 16.8033 52.6062 16.6233C52.9762 16.3733 53.1562 16.3933 53.5862 16.2533C54.0462 16.1133 53.9962 15.9133 53.9962 15.4233C53.9962 15.0933 54.1162 14.4933 53.9862 14.1933C53.8762 13.9133 52.6562 12.5633 53.6262 12.6433C53.9562 12.6733 54.2262 13.0233 54.4462 13.2233C54.8762 13.6133 54.8962 13.6133 55.3862 13.4833C55.9262 13.3233 57.1062 12.9433 57.6162 13.1933C57.6462 13.4333 57.5962 13.6933 57.6962 13.9133C58.0062 13.8833 58.0162 13.4933 58.2762 13.4333C58.6762 13.3333 58.7762 13.7033 58.8362 13.9833C58.8862 14.3033 58.7962 14.6533 58.8362 14.9833C58.8662 15.3133 59.0262 15.6833 59.0862 15.9833C59.1562 16.4233 59.2962 16.6733 59.4262 17.0633C59.5262 17.4033 59.4562 17.7533 59.5862 18.0733C59.8562 18.7633 60.4362 18.6333 61.1162 18.6733C61.1662 18.7433 61.1662 18.7333 61.2062 18.7733C61.2562 18.9733 61.4862 19.4933 61.7262 19.5033C62.0262 19.5233 61.8862 19.3133 62.0562 19.2133C62.2062 19.1233 62.3562 19.0733 62.5162 19.0133C63.1162 18.7933 63.7662 18.6633 64.4562 18.7733C64.5162 19.2933 64.2162 19.4133 64.0662 19.8133C63.9562 20.1333 64.0262 20.5633 64.0162 20.9133C63.9762 21.7733 63.6762 22.3833 64.6262 22.6833C65.4962 22.9733 65.1962 23.9333 65.1562 24.7533C65.1162 25.6533 65.3562 26.0733 65.9262 26.7233C66.5962 27.4833 67.0162 26.4833 67.8462 26.6533C68.1062 26.7233 68.4662 27.0833 68.4962 27.3133Z" fill="#F4A76F"/>
<path d="M66.2458 4.24333C66.2658 4.15333 66.2458 4.06333 66.2458 3.99333C66.2458 3.91333 66.2558 3.83334 66.2558 3.76334C66.4758 3.75334 66.7058 3.76333 66.9358 3.75333C66.9458 3.72333 66.9458 3.68333 66.9358 3.66333C66.9658 3.71333 67.0058 3.76334 67.0058 3.80334C67.0558 3.81334 67.1658 3.80333 67.2058 3.82333C67.2258 4.05333 67.1958 4.29333 67.2858 4.49333C67.3358 4.41333 67.4158 4.36334 67.4658 4.22334C67.5558 4.20334 67.7058 4.20334 67.7858 4.22334C67.7558 4.35334 67.8058 4.48333 67.7558 4.60333C68.0358 4.63333 68.2358 4.78333 68.0758 5.07333C67.8358 5.08333 67.5858 5.08333 67.3458 5.09333C67.3558 5.26333 67.3158 5.47333 67.3258 5.64333C67.1258 5.70333 66.9358 5.74333 66.7158 5.70333C66.4858 5.30333 67.0858 5.27333 66.8758 4.86333C66.6058 4.84333 66.3358 5.13333 66.0758 5.02333C65.7558 4.89333 65.6858 4.28333 65.6758 3.99333C65.8458 3.97333 66.0658 3.97333 66.2458 3.99333C66.2258 4.07333 66.2258 4.16333 66.2458 4.24333Z" fill="#F4A76F"/>
<path d="M66.2464 3.99316C66.2464 4.06316 66.2664 4.15317 66.2464 4.23317C66.2264 4.16317 66.2264 4.07316 66.2464 3.99316Z" fill="#F4A76F"/>
<path d="M62.3962 2.03331C62.5362 2.45331 62.6562 2.87331 62.6162 3.34331C62.3762 3.29331 62.4162 3.37331 62.3262 3.13331C62.0662 3.11331 61.7962 3.13331 61.5462 3.11331C61.6062 2.54331 60.9762 2.28331 60.6162 2.09331C60.2562 1.89331 60.2962 1.95331 60.1062 1.57331C59.8562 1.11331 59.3462 0.233313 60.3562 0.333313C60.3562 0.113313 60.4862 -0.0166921 60.7162 0.0233079C60.6662 0.303308 60.7762 0.463309 61.0662 0.423309C61.0562 0.523309 61.0962 0.653311 61.0862 0.753311C61.4362 0.703311 61.6462 0.913311 61.9862 0.893311C62.2362 1.12331 62.2962 1.73331 62.3962 2.03331Z" fill="#F4A76F"/>
<path d="M40.2661 32.9334C40.2661 33.4634 40.3561 33.8634 39.9961 34.2034C39.7561 34.4134 39.0461 34.6734 38.7361 34.6734C38.7561 37.0334 39.6761 39.1234 40.3061 41.2734C40.0661 41.3834 39.8261 41.5234 39.5961 41.7034C39.2461 41.9434 38.9361 42.2034 38.5061 42.3734C37.7261 42.6734 37.4961 42.9234 36.9161 43.5134C36.6961 43.7334 36.6061 43.7634 36.2961 43.8934C35.5661 44.1734 35.8761 44.5134 35.6261 45.1234C35.6161 45.1534 35.6061 45.1834 35.5761 45.2134C34.9961 44.6634 34.1561 44.3634 33.5461 43.8334C32.9261 43.2934 31.7661 43.0034 31.2761 42.3934C30.8161 41.8134 31.3461 41.5734 31.5461 41.0434C31.7261 40.6234 31.7561 40.0534 31.8161 39.5734C31.9261 38.6334 32.5161 37.8634 32.0761 36.9934C31.9461 36.7134 31.5961 35.7934 31.3061 35.6434C30.6661 35.3234 30.4561 36.2134 30.0161 36.4734C29.7761 36.6134 29.4661 36.6234 29.2161 36.7834C29.0361 36.9234 28.9561 37.3434 28.7461 37.4434C28.3161 37.6534 27.2261 37.3834 26.7061 37.3834C26.6961 37.0334 26.6861 36.6834 26.6861 36.3234C26.6861 35.8834 26.5661 35.5434 26.5361 35.1234C26.4861 34.5234 26.3161 34.2634 26.0261 33.7334C25.7161 33.1834 25.1161 32.5234 25.1761 31.7934C25.2061 31.4534 25.3261 31.1334 25.3361 30.7334C25.3461 30.5334 25.3461 30.3334 25.2761 30.1434C25.2161 29.9934 24.9761 30.0834 24.9961 29.8034C25.3361 29.7734 25.6961 29.8034 26.0261 29.7734C26.1161 29.4534 25.9861 28.8334 26.4961 28.9234C26.6761 28.9634 26.8361 29.3234 27.0261 29.4034C27.1761 29.4434 27.5261 29.4234 27.6761 29.3834C28.2961 29.2934 28.1861 28.9434 28.1861 28.3934C28.1861 27.8434 28.2861 27.8034 28.5361 27.4134C29.2061 27.4034 28.4761 26.9234 28.3661 26.7534C28.2461 26.5434 28.3561 25.8834 27.9261 25.9534C27.5261 26.0134 27.8261 26.5634 27.6861 26.8034C27.4661 27.1634 27.0261 27.0334 26.6361 27.0534C26.6961 28.1334 26.0561 27.1234 25.5361 27.1534C25.2561 27.1634 25.0861 27.3734 24.7461 27.3334C24.4361 27.3134 24.1761 27.1534 23.8461 27.2134C23.8261 27.4534 24.1961 28.0134 24.2961 28.2434C24.4461 28.6234 24.7261 28.8534 24.6261 29.3434C24.3761 29.3634 24.0361 29.2534 23.7961 29.1434C23.5361 29.0334 23.4861 28.8434 23.2761 28.7134C22.8361 28.3934 22.2861 28.6134 22.0361 27.9634C21.5161 26.5834 22.7961 24.6334 23.9961 24.3134C24.7761 24.0934 25.2861 23.6034 25.8761 23.1034C26.5061 22.5634 27.1561 22.7534 27.9761 22.7134C28.1561 21.8734 28.5861 21.4334 29.3261 22.0634C29.8061 22.4834 30.3261 23.1634 30.7361 23.7034C31.1361 24.2434 31.4261 24.8534 31.7861 25.4034C32.2061 26.0334 32.8061 26.0434 33.4561 26.4734C34.6761 27.2634 35.6061 28.5034 36.7861 29.3434C37.5061 29.8534 38.1361 30.0434 38.9561 30.1834C39.2661 30.2434 39.6061 30.2234 39.9261 30.2434C39.9461 31.2434 40.2461 31.9834 40.2661 32.9334Z" fill="#F4A76F"/>
<path d="M35.5761 45.2034C35.4161 45.4934 35.1361 45.5934 34.9561 45.8834C34.7861 46.1534 34.7061 46.5034 34.5061 46.7834C34.0561 47.4134 33.8561 48.2734 33.3261 48.8834C32.7061 49.5834 32.7261 50.0934 32.5161 50.9834C32.4261 51.3734 32.3461 51.8734 31.9661 52.1234C31.5761 52.3734 31.0461 52.1834 30.6261 52.3334C30.4961 52.8334 30.3661 52.9634 29.9161 52.8634C29.6061 52.7934 29.1061 52.6634 28.8361 52.4634C28.6961 51.7134 27.6961 51.9934 27.1261 52.0734C26.7161 52.1334 26.6661 52.2434 26.3361 51.9234C26.1261 51.7334 26.0361 51.2634 25.7961 51.2134C25.6861 50.9834 25.5961 50.6134 25.4561 50.3834C25.2361 50.0034 25.0661 50.0934 24.6461 50.0734C24.5361 49.9534 24.4161 49.8234 24.3861 49.6434C23.8861 49.5534 22.8161 49.5034 22.5061 49.0834C22.2361 48.7234 22.2261 48.0334 21.8461 47.6834C21.6361 47.5034 21.2661 47.5934 21.1061 47.4334C21.0461 47.3634 21.0861 47.1234 21.0461 47.0434C20.9861 46.8934 20.9561 46.8634 20.8661 46.7234C20.6261 46.3734 20.0261 45.4434 19.6061 45.3334C19.3761 45.1034 18.9061 44.5734 18.5661 44.4234C18.1561 44.2334 17.5161 44.2134 18.0061 43.5434C18.7661 42.5034 20.2161 44.2034 20.7061 42.9534C21.1661 42.8034 21.3761 42.9234 21.6961 43.2134C21.8361 43.3234 21.8161 43.4634 21.9961 43.5534C22.1261 43.6134 22.4561 43.5734 22.6061 43.6034C23.0961 43.6734 23.1561 43.6734 23.5561 43.3634C23.7661 43.1834 24.2261 43.0034 24.3461 42.7534C24.5661 42.3234 24.2461 41.9634 24.1561 41.6034C23.8861 40.6234 25.1061 40.6334 25.7361 40.4634C25.9961 40.3834 26.5861 40.2634 26.7361 40.0134C26.8661 39.7834 26.7261 39.0434 26.7261 38.7634C26.7261 38.3134 26.7161 37.8534 26.7061 37.3834C27.2161 37.3834 28.3161 37.6434 28.7461 37.4434C28.9561 37.3334 29.0361 36.9134 29.2161 36.7834C29.4561 36.6234 29.7761 36.6134 30.0161 36.4734C30.4561 36.2134 30.6561 35.3134 31.3061 35.6334C31.5961 35.7834 31.9361 36.7134 32.0761 36.9934C32.5161 37.8534 31.9261 38.6234 31.8161 39.5734C31.7561 40.0434 31.7261 40.6234 31.5461 41.0434C31.3361 41.5734 30.8061 41.8134 31.2661 42.3934C31.7661 43.0034 32.9161 43.2934 33.5461 43.8334C34.1561 44.3634 34.9961 44.6634 35.5761 45.2034Z" fill="#F4A76F"/>
<path d="M15.9562 34.6333C15.9662 35.1933 16.2061 36.0733 15.9061 36.5733C15.7261 36.8633 15.4362 36.9433 15.2762 37.2233C15.1562 37.4133 15.0662 37.6933 14.9562 37.9133C14.7662 38.3633 15.0662 39.3333 14.7162 39.6133C14.6162 39.7033 14.3961 39.5633 14.2661 39.6733C14.1161 39.8033 14.1962 39.9333 14.1762 40.1033C14.1162 40.4433 14.2562 40.7733 14.0562 41.0533C13.6062 41.0333 13.2761 40.7333 12.8762 40.5733C12.3962 40.3833 11.9562 40.3933 11.4662 40.4933C10.9662 40.6033 10.6062 40.8233 10.1862 41.0933C9.68616 41.4033 9.59616 41.6333 9.74616 42.2433C10.0762 42.2233 10.3262 42.4333 10.2262 42.7933C9.87616 42.9333 9.52616 43.2033 9.18616 43.3933C8.88616 43.5433 8.46615 43.7333 8.29615 43.9833C8.00615 43.6633 8.40616 43.0533 7.99616 42.8033C7.66616 42.6133 7.07615 42.8733 6.79615 42.9533C6.24615 43.0933 5.33615 43.5833 5.03615 44.1433C4.81615 44.5333 5.12615 45.0033 4.65615 45.1933C4.14615 45.3833 3.83615 45.0633 3.54615 44.7533C3.33615 44.5233 3.10616 44.2433 2.80616 44.1433C2.39616 44.0033 2.08615 44.1533 1.70615 43.9033C1.42615 43.7033 0.656156 43.1333 0.726156 42.7533C1.19616 42.6933 1.37615 43.1833 1.89615 43.0933C1.88615 42.9333 1.97615 42.8533 2.01615 42.7133C2.06615 42.7133 2.13616 42.6933 2.19616 42.7033C2.27616 42.2033 2.11616 42.0833 2.30616 41.6533C2.47616 41.2833 2.56615 40.9633 2.50615 40.5033C2.43615 40.0233 1.87616 38.3533 2.88616 38.4733C2.99616 38.4933 3.21615 38.6733 3.34615 38.7033C3.56615 38.7733 3.79615 38.7433 4.00615 38.7033C4.51615 38.6433 4.61615 38.5133 4.64615 38.0133C4.66615 37.6533 4.52615 37.1033 4.64615 36.7633C4.79615 36.3433 5.21615 36.2233 5.34615 35.7633C5.49615 35.1633 5.13615 34.7433 5.14615 34.1733C5.15615 33.7433 5.48616 33.4933 5.77616 33.2133C6.21616 32.7933 5.90616 32.4433 6.63616 32.3833C7.65616 32.2933 8.49616 32.6733 9.52616 32.6233C9.53616 32.3133 9.42616 31.8533 9.72616 31.6833C9.94616 31.5533 10.6662 31.6833 10.9262 31.6833C11.2262 31.6833 11.7762 31.5833 12.0262 31.7433C12.2462 31.8733 12.3462 32.3233 12.4762 32.5233C12.9062 33.1533 13.6562 33.2933 14.2162 33.7833C14.4862 34.0133 14.6061 34.3433 14.9061 34.5333C15.1861 34.6933 15.6262 34.6133 15.9562 34.6333Z" fill="#F4A76F"/>
<path d="M60.5462 0.0333789C60.4162 0.0633789 60.3562 0.173376 60.3562 0.343376C59.3462 0.243376 59.8562 1.10338 60.1062 1.56338C60.3062 1.94338 60.2562 1.90338 60.6062 2.09338C60.9762 2.29338 61.6062 2.55338 61.5462 3.12338C61.7962 3.14338 62.0562 3.11338 62.3262 3.12338C62.4062 3.37338 62.3662 3.28338 62.6062 3.34338C62.6462 2.87338 62.5262 2.45338 62.3862 2.03338C62.2862 1.73338 62.2362 1.10338 61.9862 0.873383C61.6462 0.903383 61.4262 0.70338 61.0762 0.75338C61.0862 0.65338 61.0362 0.533383 61.0462 0.443383C60.7562 0.473383 60.6562 0.313379 60.7062 0.0333789C60.6462 0.0233789 60.5862 0.0233789 60.5462 0.0333789ZM66.9262 3.65338L66.2362 4.00338C66.0562 3.98338 65.8462 3.98338 65.6662 4.00338C65.6862 4.29338 65.7562 4.90338 66.0762 5.03338C66.3262 5.13338 66.6262 4.82338 66.8862 4.84338C67.0962 5.26338 66.4762 5.28338 66.7062 5.69338C66.9262 5.72338 67.1262 5.71338 67.3262 5.66338C67.3162 5.48338 67.3662 5.26338 67.3562 5.09338C67.5962 5.08338 67.8362 5.07338 68.0762 5.06338C68.2362 4.77338 68.0562 4.62338 67.7662 4.59338C67.8162 4.46338 67.7562 4.34338 67.7962 4.22338C67.7162 4.20338 67.5462 4.20338 67.4462 4.22338C67.4062 4.36338 67.3362 4.42338 67.2962 4.50338C67.2062 4.30338 67.2162 4.04338 67.1962 3.81338C67.1562 3.79338 67.0762 3.82338 67.0162 3.81338C67.0162 3.78338 66.9562 3.70338 66.9262 3.65338Z" fill="#F4A76F"/>
</svg>
