<svg width="341" height="213" viewBox="0 0 341 213" fill="none" xmlns="http://www.w3.org/2000/svg">
<path fill-rule="evenodd" clip-rule="evenodd" d="M80 213C95.8275 213 110.582 206.881 123 196.323C135.418 206.881 150.172 213 166 213C183.786 213 200.216 205.273 213.5 192.204C226.784 205.273 243.214 213 261 213C305.183 213 341 165.318 341 106.5C341 47.6817 305.183 0 261 0C243.214 0 226.784 7.72673 213.5 20.7963C200.216 7.72673 183.786 0 166 0C150.172 0 135.418 6.11887 123 16.6766C110.582 6.11887 95.8275 0 80 0C35.8172 0 0 47.6817 0 106.5C0 165.318 35.8172 213 80 213Z" fill="url(#paint0_radial_4981_12500)"/>
<path fill-rule="evenodd" clip-rule="evenodd" d="M80 213C95.8275 213 110.582 206.881 123 196.323C135.418 206.881 150.172 213 166 213C183.786 213 200.216 205.273 213.5 192.204C226.784 205.273 243.214 213 261 213C305.183 213 341 165.318 341 106.5C341 47.6817 305.183 0 261 0C243.214 0 226.784 7.72673 213.5 20.7963C200.216 7.72673 183.786 0 166 0C150.172 0 135.418 6.11887 123 16.6766C110.582 6.11887 95.8275 0 80 0C35.8172 0 0 47.6817 0 106.5C0 165.318 35.8172 213 80 213Z" fill="url(#paint1_radial_4981_12500)"/>
<path d="M66.069 110.45L64.7773 115.25L69.634 116.55L68.704 113L66.069 110.45ZM90.3007 113L89.3707 116.55L94.2274 115.25L92.9357 110.45L90.3007 113ZM68.704 101L66.069 103.55L67.0507 107L68.704 101Z" fill="white"/>
<path d="M67.0481 107L66.0664 110.45L68.7014 113L67.0481 107Z" fill="white"/>
<path d="M66.066 103.55L62.501 107L66.066 110.45L67.0476 107L66.066 103.55ZM73.2993 117.45L75.9343 120L79.4993 119.05L73.2993 117.45ZM83.0643 120L88.0243 121.25L89.3677 116.55L85.6993 117.45L83.0643 120Z" fill="white"/>
<path d="M85.6982 117.45L89.3666 116.55L90.2966 113L85.6982 117.45ZM69.6299 116.55L70.9732 121.25L75.9332 120L73.2982 117.45L69.6299 116.55ZM79.4982 119.05L83.0632 120L85.6982 117.45L79.4982 119.05Z" fill="white"/>
<path d="M75.9374 120L79.5024 123.45L83.0674 120L79.5024 119.05L75.9374 120ZM69.634 97.45L64.7773 98.75L66.069 103.55L68.704 101L69.634 97.45ZM68.704 113L69.634 116.55L73.3024 117.45L68.704 113ZM91.9541 107L92.9357 103.55L90.3007 101L91.9541 107Z" fill="white"/>
<path d="M73.2995 96.5503L69.6312 97.4503L68.7012 101L73.2995 96.5503ZM90.2979 101L89.3679 97.4503L85.6995 96.5503L90.2979 101ZM92.9329 110.45L96.4979 107L92.9329 103.55L91.9512 107L92.9329 110.45Z" fill="white"/>
<path d="M90.2989 101L85.7005 96.55L79.5005 94.95L73.3005 96.55L68.7022 101L67.0488 107L68.7022 113L73.3005 117.45L79.5005 119.05L85.7005 117.45L90.2989 113L91.9522 107L90.2989 101Z" fill="white"/>
<path d="M90.2966 113L92.9316 110.45L91.9499 107L90.2966 113ZM92.9316 103.55L94.2233 98.75L89.3666 97.45L90.2966 101L92.9316 103.55ZM89.3666 97.45L88.0232 92.75L83.0632 94L85.6982 96.55L89.3666 97.45ZM75.9332 94L70.9732 92.75L69.6299 97.45L73.2982 96.55L75.9332 94ZM79.4982 94.95L75.9332 94L73.2982 96.55L79.4982 94.95Z" fill="white"/>
<path d="M83.0665 94.0003L79.5015 90.5503L75.9365 94.0003L79.5015 94.9503L83.0665 94.0003Z" fill="white"/>
<path d="M85.6993 96.55L83.0643 94L79.4993 94.95L85.6993 96.55ZM75.9343 120L70.9743 121.25L73.2993 129.55L79.4993 123.45L75.9343 120ZM73.2993 129.55L79.4993 152L85.6993 129.55L79.4993 123.45L73.2993 129.55ZM69.631 116.55L64.7743 115.25L62.501 123.45L70.9743 121.25L69.631 116.55Z" fill="white"/>
<path d="M62.5019 123.45L56.3019 146L73.3002 129.55L70.9752 121.25L62.5019 123.45ZM56.3019 113L39.2002 129.55L62.5019 123.45L64.7752 115.25L56.3019 113Z" fill="white"/>
<path d="M66.0668 110.45L62.5018 107L56.3018 113L64.7751 115.25L66.0668 110.45ZM66.0668 103.55L64.7751 98.75L56.3018 101L62.5018 107L66.0668 103.55Z" fill="white"/>
<path d="M56.3017 101L33 107L56.3017 113L62.5017 107L56.3017 101ZM102.802 113L94.2251 115.25L96.4984 123.45L119.8 129.55L102.802 113Z" fill="white"/>
<path d="M89.3684 116.55L88.025 121.25L96.4984 123.45L94.225 115.25L89.3684 116.55ZM83.065 120L79.5 123.45L85.7 129.55L88.025 121.25L83.065 120ZM92.9334 110.45L94.225 115.25L102.802 113L96.4984 107L92.9334 110.45Z" fill="white"/>
<path d="M85.7002 129.55L102.802 146L96.4985 123.45L88.0252 121.25L85.7002 129.55ZM89.3685 97.4503L94.2252 98.7503L96.4985 90.5503L88.0252 92.7503L89.3685 97.4503Z" fill="white"/>
<path d="M102.802 101L119.8 84.55L96.4985 90.55L94.2252 98.75L102.802 101ZM96.4985 90.55L102.802 68L85.7002 84.55L88.0252 92.75L96.4985 90.55ZM102.802 113L126 107L102.802 101L96.4985 107L102.802 113Z" fill="white"/>
<path d="M92.9335 103.55L96.4985 107L102.802 101L94.2251 98.75L92.9335 103.55ZM73.3001 84.55L56.3018 68L62.5018 90.55L70.9751 92.75L73.3001 84.55Z" fill="white"/>
<path d="M69.631 97.4503L70.9743 92.7503L62.501 90.5503L64.7743 98.7503L69.631 97.4503Z" fill="white"/>
<path d="M62.5019 90.5503L39.2002 84.5503L56.3019 101L64.7752 98.7503L62.5019 90.5503ZM83.0653 94.0003L88.0253 92.7503L85.7003 84.5503L79.5003 90.5503L83.0653 94.0003Z" fill="white"/>
<path d="M85.6998 84.55L79.4998 62L73.2998 84.55L79.4998 90.55L85.6998 84.55Z" fill="white"/>
<path d="M75.9336 94.0003L79.4986 90.5503L73.2986 84.5503L70.9736 92.7503L75.9336 94.0003Z" fill="white"/>
<path d="M79.4984 132.55C94.0796 132.55 105.9 121.111 105.9 107C105.9 92.889 94.0796 81.4498 79.4984 81.4498C64.9171 81.4498 53.0967 92.889 53.0967 107C53.0967 121.111 64.9171 132.55 79.4984 132.55Z" fill="#FE00BA"/>
<path d="M79.5009 129.55C92.3701 129.55 102.803 119.454 102.803 107C102.803 94.5458 92.3701 84.4498 79.5009 84.4498C66.6317 84.4498 56.1992 94.5458 56.1992 107C56.1992 119.454 66.6317 129.55 79.5009 129.55Z" fill="white"/>
<path d="M218.563 106.612C218.563 120.6 214.286 133.16 207.501 142.161C200.718 151.16 191.553 156.476 181.656 156.476C171.758 156.476 162.593 151.16 155.81 142.161C149.025 133.16 144.748 120.6 144.748 106.612C144.748 92.6242 149.025 80.0651 155.81 71.0641C162.593 62.0644 171.758 56.7484 181.656 56.7484C191.553 56.7484 200.718 62.0644 207.501 71.0641C214.286 80.0651 218.563 92.6242 218.563 106.612Z" stroke="white" stroke-width="5.49681"/>
<mask id="mask0_4981_12500" style="mask-type:alpha" maskUnits="userSpaceOnUse" x="142" y="54" width="80" height="106">
<ellipse cx="181.656" cy="106.612" rx="39.6556" ry="52.6123" fill="white"/>
</mask>
<g mask="url(#mask0_4981_12500)">
<ellipse cx="204.428" cy="106.612" rx="33.3996" ry="44.3123" fill="white"/>
</g>
<path d="M305.251 106.612C305.251 120.6 300.974 133.16 294.19 142.161C287.407 151.16 278.241 156.476 268.344 156.476C258.447 156.476 249.281 151.16 242.498 142.161C235.714 133.16 231.437 120.6 231.437 106.612C231.437 92.6242 235.714 80.0651 242.498 71.0641C249.281 62.0644 258.447 56.7484 268.344 56.7484C278.241 56.7484 287.407 62.0644 294.19 71.0641C300.974 80.0651 305.251 92.6242 305.251 106.612Z" stroke="white" stroke-width="5.49681"/>
<mask id="mask1_4981_12500" style="mask-type:alpha" maskUnits="userSpaceOnUse" x="228" y="54" width="80" height="106">
<ellipse cx="268.344" cy="106.612" rx="39.6556" ry="52.6123" fill="white"/>
</mask>
<g mask="url(#mask1_4981_12500)">
<ellipse cx="291.116" cy="106.612" rx="33.3996" ry="44.3123" fill="white"/>
</g>
<defs>
<radialGradient id="paint0_radial_4981_12500" cx="0" cy="0" r="1" gradientUnits="userSpaceOnUse" gradientTransform="translate(-14.5 2.77319e-06) rotate(44.561) scale(184.56 295.47)">
<stop stop-color="#FBFFD1"/>
<stop offset="1" stop-color="#D5009C"/>
</radialGradient>
<radialGradient id="paint1_radial_4981_12500" cx="0" cy="0" r="1" gradientUnits="userSpaceOnUse" gradientTransform="translate(245.5 107) rotate(18.0761) scale(151.476 242.504)">
<stop stop-color="#FF41CD"/>
<stop offset="1" stop-color="#D4009C" stop-opacity="0"/>
</radialGradient>
</defs>
</svg>
