<svg width="67" height="149" viewBox="0 0 67 149" fill="none" xmlns="http://www.w3.org/2000/svg">
<path d="M64.3912 56.1098C66.0112 56.5098 66.6212 56.3698 66.5712 58.3298C64.7512 58.4798 62.5112 59.9698 62.6412 56.9298C60.5212 56.8298 58.1712 56.7098 56.1112 56.7898C54.8212 56.8398 54.1112 57.1398 53.7512 58.2198C53.4012 59.1998 53.6912 59.7998 52.9012 60.2498C52.4912 59.7498 51.8612 59.5598 51.9912 58.8098C51.4712 58.6498 50.9612 58.2898 50.9212 57.7198C50.2912 57.6398 49.2212 57.7698 48.7912 57.4098C48.5612 57.2198 48.6012 56.6998 48.3512 56.5398C48.0712 56.3698 47.3512 56.5198 47.0012 56.5098C46.9712 55.7398 46.7312 53.8498 47.9612 54.0598C48.1812 53.6498 48.1612 53.1798 48.3412 52.7698C48.4912 52.4198 48.9012 52.2498 48.8712 51.8098C48.7912 50.8198 47.6412 50.7898 46.9512 50.4098C47.2212 50.3898 47.4912 50.2798 47.7212 49.9698C48.7312 48.6498 46.7012 47.6598 46.3912 46.9798C46.2012 46.9298 46.1212 46.8898 45.9912 46.8298C46.7012 46.6398 47.2812 45.7598 48.2412 46.0398C49.0812 46.2898 48.7912 47.4398 50.1812 46.8098C49.9912 45.6498 51.6112 45.0198 52.1912 46.0398C52.4512 46.4998 51.6312 47.5998 51.5212 48.1498C51.3712 48.8498 51.3612 50.1898 51.5212 50.8998C51.6912 51.6598 52.4312 52.7098 53.2312 51.6898C52.8212 51.0998 52.9512 49.2498 53.1212 48.6298C53.5612 47.0298 54.5112 48.1598 55.9512 47.9898C56.0612 45.7898 55.7012 44.5698 58.3112 45.0098C58.4712 46.0798 58.8312 46.7898 58.8812 47.9898C59.2712 47.9398 59.7512 48.0698 60.1512 48.0298C60.2612 48.1598 60.3012 48.1798 60.4212 48.2998C60.3612 48.5998 60.4512 49.0298 60.4512 49.4398C61.6512 49.3098 60.8212 47.6098 61.0812 46.8298C61.4612 45.7898 62.2812 46.0098 63.4312 46.0698C63.4612 46.7798 63.1912 47.9898 63.4412 48.6698C63.8012 49.5998 64.2612 49.5798 64.3712 50.7598C64.5312 52.5198 64.2912 54.3498 64.3912 56.1098Z" fill="#F4A76F"/>
<path d="M41.4212 48.9398C40.6912 48.9598 40.1812 49.1898 40.5812 50.2498C39.8812 50.2298 37.0912 49.7098 36.7012 50.2498C36.2012 50.9498 37.9212 52.4298 37.7312 53.4998C36.4112 54.1598 36.1612 54.5998 35.9212 55.9998C36.5812 55.9798 37.3712 56.2598 37.5112 55.4998C38.6112 55.1398 41.2912 55.5598 40.2612 57.4698C39.4312 58.9898 37.8012 56.9798 36.7312 57.0898C36.5312 58.8898 39.1112 60.2498 40.6412 60.0598C42.2712 59.8498 43.8512 57.3698 45.5812 59.5598C45.7012 59.7398 46.1412 60.5098 46.1412 60.7198C46.1112 61.7298 45.7812 61.1498 45.3612 61.6198C45.0412 61.9498 44.5112 61.9298 44.5812 62.6898C44.6112 63.0798 45.2612 63.1998 45.3312 63.4998C45.9712 66.0298 42.3712 63.5798 41.3012 63.4998C41.3612 64.8998 40.9612 66.2498 39.3312 65.9398C38.6312 64.1898 39.9112 63.2498 37.3612 63.3698C37.4212 64.2298 36.8912 64.6098 36.0812 64.3698C36.1712 62.9898 35.4212 62.5398 34.9812 61.3998C32.8912 61.6798 34.8212 57.4798 32.9212 57.9998C32.4812 58.5298 32.6912 59.2498 32.0112 59.5598C31.9012 60.3798 30.7512 60.7498 31.0512 61.6598C31.3912 62.7898 33.1312 62.1798 33.8312 62.6898C34.6912 63.3198 34.2712 64.4198 35.0112 65.1598C35.9412 66.0998 37.1512 65.0698 37.9212 65.9398C38.6912 66.7698 37.7912 67.9298 38.0112 68.7198C38.3112 69.7898 39.5512 70.0898 40.5112 70.0298C42.2512 69.9398 44.7112 67.2998 45.3912 69.7498C46.2212 69.7998 47.1212 69.9698 47.6112 69.3798C49.0112 67.6598 46.5512 64.8698 47.7312 63.1298C48.2712 62.3398 49.1312 62.3998 49.8612 61.7798C50.3012 61.4198 50.4312 60.9098 50.9812 60.6298C51.4212 60.3998 51.9812 60.6398 52.4512 60.4698C52.6412 60.4098 52.7612 60.3298 52.8912 60.2498C52.4812 59.7498 51.8512 59.5698 51.9812 58.8098C51.4612 58.6598 50.9712 58.2798 50.9212 57.7198C50.2912 57.6398 49.2212 57.7698 48.8012 57.4098C48.5612 57.2198 48.6112 56.6898 48.3612 56.5298C48.0712 56.3598 47.3612 56.5198 47.0112 56.4998C46.9812 55.7298 46.7212 53.8598 47.9512 54.0598C48.1712 53.6598 48.1512 53.1898 48.3312 52.7798C48.4812 52.4298 48.9212 52.2498 48.8912 51.8098C48.8112 50.8198 47.6412 50.7898 46.9512 50.4098C46.1712 50.4698 45.3912 49.7898 45.2612 51.7798C45.2012 52.6798 45.6312 52.9698 44.5812 53.2498C44.4012 53.2998 42.9212 52.9898 42.7612 52.8498C41.9012 52.1098 42.2512 49.9898 42.2012 48.9398C41.9312 48.9198 41.6612 48.9298 41.4212 48.9398ZM30.4512 72.4698C29.8512 72.4898 29.2812 72.5498 28.6712 72.7498C27.8712 72.9998 26.8012 73.4298 25.8312 73.4998C25.5012 73.5198 25.2112 73.5098 24.9212 73.4398C24.9812 74.0798 24.3112 74.2098 24.0112 74.6598C23.9612 74.7298 23.9112 74.8098 23.8912 74.9098C23.8612 75.0098 23.8512 75.1098 23.8612 75.2498C24.2012 75.1998 24.6712 75.3698 25.0112 75.3098C25.0512 75.4498 25.1112 75.5098 25.1712 75.5898C25.2312 75.6798 25.3012 75.7598 25.3312 75.9098C25.5612 75.9398 25.7112 75.9298 25.8312 75.8798C25.8812 75.8498 25.9512 75.7898 25.9812 75.7498C26.0212 75.7098 26.0512 75.6498 26.0812 75.5898C26.1512 75.4398 26.1712 75.2798 26.3012 75.1598C26.3412 75.1198 26.3912 75.0598 26.4512 75.0298C27.1012 74.7598 27.6012 74.9498 28.2612 75.0298C29.5512 75.1598 30.6612 74.7998 32.0812 74.7198C32.1012 74.3398 32.0912 73.9798 32.1112 73.5898C32.1212 73.4098 32.1312 73.2398 32.1712 73.0598C32.2112 72.8798 32.2712 72.6998 32.3612 72.5298C31.6912 72.4798 31.0512 72.4498 30.4512 72.4698Z" fill="#F4A76F"/>
<path d="M46.0818 0.899755C45.9418 0.889755 45.7918 0.889763 45.6418 0.939763C45.6218 1.52976 46.0318 1.93976 46.6418 1.86976C46.7518 2.38976 47.0718 2.80975 47.5818 2.89975C47.5618 3.87975 46.2418 4.04976 45.7618 4.74976C45.1618 5.60976 45.3418 6.70976 45.3618 7.74976C45.3918 7.83976 45.5518 7.89976 45.5118 8.11976C46.7118 8.46976 46.5618 6.68975 46.9218 6.14975C47.4918 5.29975 47.9218 5.20976 47.9818 3.96976C48.2118 4.00976 48.5118 3.91975 48.7618 3.89975C48.8518 3.89975 48.9118 3.91976 48.9818 3.93976C48.9918 3.59976 48.9718 3.24976 48.9218 2.93976C48.8718 2.61976 48.8018 2.31976 48.7318 1.99976C48.4218 2.03976 48.1418 1.98976 47.8918 1.86976C47.6318 1.75976 47.4018 1.56975 47.1718 1.39975C46.8218 1.15975 46.4918 0.939755 46.0818 0.899755ZM47.9818 7.99976C47.9018 8.14976 47.8118 8.33976 47.7018 8.52976C47.4918 8.90976 47.2318 9.31976 46.9218 9.58976C46.7718 9.72976 46.6018 9.83976 46.4218 9.86976C46.4118 10.4298 46.4218 10.7698 46.2618 11.1498C46.2118 11.2798 46.1518 11.4198 46.0518 11.5598C45.8418 11.8398 45.4818 11.9298 45.2318 12.0898C45.1718 12.1298 45.1218 12.1598 45.0818 12.2198C44.9218 12.3698 44.8718 12.5798 44.9818 12.9698C45.3118 12.9698 45.6118 13.2198 45.9818 13.1498C45.9418 13.7398 46.0018 14.2898 46.3018 14.7498C46.3918 14.8998 46.5218 15.0298 46.6718 15.1498C46.7418 14.8998 46.8318 14.6498 46.9518 14.3998C47.2018 13.8998 47.5418 13.4298 47.9518 13.0898C48.0518 13.0098 48.1618 12.9398 48.2618 12.8698C48.3618 12.7998 48.4918 12.7598 48.6118 12.7198C48.6818 12.6898 48.7818 12.6398 48.8918 12.6198C49.6918 12.5098 51.3218 12.6498 51.5118 12.0598C51.6018 11.8098 51.4618 11.4898 51.2318 11.1498C51.1618 11.0398 51.0818 10.9198 50.9818 10.8098C50.6218 10.3698 50.1618 9.98976 49.9518 9.83976C49.4818 9.50976 49.0918 9.34976 48.7618 9.11976C48.6818 9.05976 48.5918 8.99975 48.5118 8.92975C48.3018 8.72975 48.1418 8.43976 47.9818 7.99976ZM41.9518 27.8998C41.8418 27.9098 41.7118 27.9298 41.5818 27.9698C41.5618 28.1598 41.4718 28.2898 41.3618 28.3698C41.3018 28.4098 41.2418 28.4498 41.1718 28.4698C40.8118 28.5698 40.2618 28.4398 39.8618 28.4698C39.8918 28.6598 39.8118 28.9298 39.7918 29.1598C39.7918 29.2298 39.8118 29.3098 39.8218 29.3698C38.9018 29.4198 37.8018 29.1398 36.9518 29.2498C36.0718 29.3398 35.6418 30.1098 34.7618 29.9398C34.7418 30.2198 34.7718 30.4498 34.8618 30.6898C34.8618 30.6998 34.8518 30.7098 34.8618 30.7198C34.9818 31.0698 35.1818 31.4098 35.2918 31.7498C35.4018 32.0798 35.4318 32.4398 35.2918 32.8398C35.2818 32.8698 35.2718 32.8798 35.2618 32.9098V32.9298H35.2318H35.1118C35.0818 32.9798 35.0818 33.0198 35.0818 33.0598L34.9818 33.3698C35.2318 33.2598 35.4618 33.2198 35.6418 33.2498C35.8218 33.2698 35.9618 33.3498 36.1118 33.4698C36.4118 33.6998 36.6818 34.0698 37.0818 34.3698C37.1918 34.2698 37.2918 34.1598 37.3618 34.0298C37.4618 33.8198 37.5218 33.5998 37.6418 33.4298C37.7618 33.2698 37.9218 33.1398 38.2318 33.1498C38.2418 33.1498 38.2518 33.1498 38.2618 33.1498C38.2518 33.0298 38.2318 32.9198 38.2318 32.8098C38.3218 31.2298 40.2318 31.7698 41.5118 32.1498C41.5418 32.5798 41.3918 33.3198 41.5418 33.7198C41.5918 33.8498 41.6818 33.9398 41.7618 34.0298C42.0218 34.2898 42.3918 34.4098 42.5818 34.7498C42.9818 35.4998 42.4118 36.8098 43.7618 36.7498C43.8018 37.4898 44.1118 39.0698 43.2618 39.2198C42.5718 41.4498 44.7118 40.7398 45.3318 42.3698C45.3918 42.5198 45.4518 42.6298 45.4818 42.7498C45.4818 42.7598 45.4818 42.7698 45.4818 42.7798C45.6718 43.5798 45.3118 43.7298 46.2618 44.3398C46.5318 44.5098 46.8718 44.6898 47.2018 44.8398C47.5318 44.9898 47.8818 45.1198 48.2018 45.0898C48.3118 43.0098 48.7018 41.3298 46.3018 41.2798C46.2518 40.5698 46.0218 39.5298 47.0118 39.5898C47.7118 39.0098 47.7418 37.4498 46.4218 37.7498C46.3718 37.3698 46.3618 36.8498 46.4218 36.3398C46.4518 36.0898 46.4818 35.8498 46.5518 35.6198C46.6118 35.3998 46.6918 35.1798 46.8018 35.0298C47.3918 34.9998 48.0218 35.0298 48.6118 34.9998C48.6418 34.6798 48.6018 34.3998 48.5518 34.1198C48.4918 33.8398 48.3818 33.5598 48.2618 33.3098C47.7318 32.1598 46.7218 31.2398 46.3618 30.1498C46.2818 29.9098 46.2118 29.6598 46.2018 29.3998C46.2018 29.2698 46.2118 29.1298 46.2318 28.9998C45.3218 28.8598 44.5018 29.3098 43.6718 28.9698C42.9818 28.6698 42.7418 27.8798 41.9518 27.8998Z" fill="#F4A76F"/>
<path d="M32.7619 35.9297C33.0619 36.0797 33.0619 37.2497 32.9019 37.6397C31.8619 40.1797 29.1419 38.7797 27.0219 39.6197C26.9819 40.7997 27.0019 40.9297 27.4919 41.8697C27.9619 42.7397 28.0719 43.0497 28.0119 44.1697C27.9419 45.6697 28.2619 48.4197 26.1019 48.2797C25.8819 49.1097 27.6519 51.1097 25.7119 51.1697C25.6819 51.7097 25.5219 52.5897 25.6819 53.1197C25.8319 53.6097 26.3719 53.8497 26.5719 54.3197C27.2719 55.9997 25.9819 56.1697 24.6519 56.1097C24.6919 55.9197 24.5919 55.6697 24.6219 55.4997C23.4319 55.4397 21.8719 54.6697 20.8519 55.3497C21.3219 57.4597 18.3019 55.4297 18.3219 57.0197C17.2319 56.8997 16.6219 57.5297 15.4819 57.4197C14.8519 55.8797 15.5919 55.6697 16.6619 55.0397C17.5819 54.5097 17.0919 54.4397 17.5619 53.7697C17.8919 53.2897 17.8319 52.9497 18.6919 52.8597C19.1819 53.6597 19.5019 53.8397 20.3419 53.7997C20.7519 53.7797 22.1419 53.3797 22.4419 53.1397C23.3819 52.3497 23.4919 49.7597 23.0419 48.5497C20.8519 48.5497 20.8319 46.4397 22.9119 47.1897C22.9619 46.2297 22.8619 45.7397 23.4119 45.0197C23.9319 44.3297 24.6119 44.3597 24.7519 43.2997C24.5319 43.3497 24.2219 43.2297 24.0019 43.2597C24.0319 43.0797 23.9319 42.8197 23.9619 42.6397C23.5919 42.5797 23.2319 42.3897 22.8219 42.4697C23.2419 41.2097 22.4219 39.4497 22.9619 38.3197C24.3019 38.2997 24.0819 37.9197 24.5019 36.9797C24.8319 36.2897 25.4619 35.9397 25.6819 35.4097C26.2619 34.1497 25.4019 34.3197 26.8619 33.7097C27.5719 33.4097 28.2119 32.9797 28.9219 32.6897L28.9719 32.7997C29.1819 32.7797 29.4019 32.7797 29.6019 32.8097C29.2719 33.3797 28.9919 33.8497 28.6119 34.3997C28.1519 35.0297 27.5219 35.0297 27.8019 36.0497C29.0219 35.9697 29.9619 36.9497 31.3319 36.5997C31.6719 36.5097 32.462 35.7697 32.7619 35.9297Z" fill="#F4A76F"/>
<path d="M21.1115 97.1496C19.6915 97.6796 20.7014 98.9296 20.7014 99.7796C20.7014 99.9096 20.6914 100.04 20.6714 100.15C20.6714 100.16 20.6714 100.18 20.6714 100.18C20.5414 100.99 20.1015 101.51 20.8615 102.4C21.0215 102.4 21.1714 102.42 21.3314 102.43C21.4514 103.83 20.5214 105.07 19.2614 105.71C19.1714 106.2 18.7514 106.47 18.2314 106.5C18.2414 106.76 18.4314 106.98 18.7614 107.15C18.7714 107.16 18.7914 107.15 18.8014 107.15C20.2814 107.88 24.2114 107.88 25.1414 107.75C25.0114 107.47 24.8314 107.22 24.7014 106.96C24.6414 106.83 24.5814 106.7 24.5514 106.56C24.5114 106.42 24.4814 106.26 24.4814 106.09C24.5414 105.34 25.1614 105.23 25.4214 104.59C25.4214 104.58 25.4214 104.57 25.4214 104.56C25.4814 104.4 25.5314 104.26 25.5514 104.12C25.5814 103.84 25.5314 103.58 25.4514 103.31C25.4114 103.17 25.3714 103.04 25.3314 102.9C25.2614 102.7 25.1914 102.57 25.1414 102.47C25.0414 102.26 24.9914 102.18 24.9814 101.97C24.9814 101.86 24.9914 101.71 25.0114 101.5C25.0614 101.17 25.7714 100.47 25.3914 99.8096C25.2514 99.5396 24.3715 99.2796 24.1115 98.8696C23.9815 98.6696 23.9314 98.5296 23.9214 98.3996C23.9114 98.2696 23.9214 98.1396 23.9214 98.0596C23.9214 98.0096 23.9214 97.9997 23.8914 97.9597C23.8314 97.8597 23.6814 97.7596 23.2014 97.6796C22.8714 97.6196 22.4714 98.0496 22.2014 98.0596C22.0914 98.0596 22.0214 97.9896 21.9514 97.8096C21.9214 97.7196 21.8815 97.5896 21.8615 97.4296C21.7015 97.4196 21.4815 97.2596 21.2915 97.1796C21.2815 97.1796 21.2714 97.1796 21.2614 97.1796C21.2014 97.1596 21.1615 97.1396 21.1115 97.1496ZM28.8014 101.72C28.7314 101.72 28.6814 101.74 28.6414 101.78C28.5814 101.84 28.5814 101.96 28.5814 102.06C28.5714 102.11 28.5614 102.17 28.5514 102.22C28.5314 102.27 28.4915 102.3 28.4515 102.34C28.2315 102.53 27.7914 102.26 27.8614 102.75C27.8714 102.84 27.9115 102.93 27.9815 103C28.0515 103.06 28.1515 103.08 28.2315 103.09C28.2515 103.32 28.2715 103.55 28.2615 103.78C28.2615 103.89 28.2515 104.01 28.2315 104.12C28.2115 104.23 28.1714 104.33 28.1414 104.44C27.6214 104.47 27.1014 104.47 26.5814 104.47C26.5814 104.94 26.5114 105.87 27.0114 106.06C27.0914 106.09 27.1714 106.1 27.2614 106.09C27.3114 106.31 27.3514 106.68 27.5114 106.87C27.5514 106.91 27.5914 106.94 27.6414 106.97C27.7314 107.01 27.8415 107.02 27.9815 106.97C28.0415 106.95 28.0714 106.91 28.1114 106.87C28.3414 106.66 28.2515 106.24 28.2615 105.93C28.4715 105.81 28.6714 105.65 28.8314 105.56C28.9114 105.5 28.9615 105.47 29.0115 105.43C29.0615 105.41 29.1214 105.38 29.1714 105.31C29.1814 105.3 29.1614 105.29 29.1714 105.28C29.3814 105.05 29.2115 104.68 29.7015 104.75C30.0515 104.79 30.1514 105.02 30.3014 105.15C30.3714 105.22 30.4714 105.27 30.5814 105.28C30.6914 105.29 30.8115 105.26 31.0115 105.15C31.2315 105.06 31.5115 104.97 31.7015 104.87C31.8715 104.77 31.9515 104.73 31.9815 104.69C31.9915 104.68 31.9815 104.66 31.9815 104.66C32.0115 104.6 32.0015 104.52 31.9815 104.31C31.9815 104.16 31.9815 103.97 31.9515 103.78C31.9415 103.68 31.8914 103.59 31.8614 103.5C31.8214 103.42 31.8015 103.34 31.7315 103.28C31.5915 103.14 31.4215 103.22 31.2615 103.13C31.2615 103.12 31.2415 103.13 31.2315 103.13C31.1515 103.08 31.1314 103 31.0814 102.94C31.0314 102.87 30.9714 102.8 30.8614 102.78C30.6114 102.72 30.2515 102.97 29.9515 102.94C29.2315 102.87 29.6215 102.57 29.4815 102.16C29.4715 102.1 29.4614 102.06 29.4214 102C29.3114 101.85 29.0014 101.71 28.8014 101.72Z" fill="#F4A76F"/>
<path d="M9.82168 140.66C10.5417 140.76 10.1317 140.94 9.72168 141.21C8.92168 141.74 9.38168 143.02 8.79168 143.81C8.56168 144.12 8.29168 144.56 8.02168 144.83C7.66167 145.16 7.28168 144.97 6.92168 145.22C6.48168 145.54 6.70168 146.03 6.53168 146.48C6.38168 146.86 6.10168 147.11 6.02168 147.54C5.96168 147.92 6.04168 148.33 5.50168 148.33C5.24168 147.98 4.86168 147.59 4.56168 147.24C4.31168 146.94 3.68168 146.72 3.52168 146.41C3.35168 146.04 3.73168 145.47 3.77168 145.13C3.80168 144.83 3.80167 144.32 3.66167 144.05C3.32167 143.4 2.47167 143.28 2.09167 142.63C2.04167 142.52 2.01168 142.33 1.93168 142.25C1.78168 142.1 1.63168 142.19 1.46168 142.08C1.19168 141.93 1.05168 141.37 0.72168 141.35C1.43168 141.35 2.14167 141.3 2.84167 141.29C3.35167 141.29 3.46167 141.23 3.80167 140.94C4.17167 140.64 4.26168 140.66 4.81168 140.66C5.57168 140.66 6.31168 140.72 6.97168 140.47C7.28168 140.37 7.53168 140.39 7.85168 140.31C8.27168 140.22 8.10168 139.97 8.38168 139.83C8.56168 140.48 9.28168 140.58 9.82168 140.66Z" fill="#57D2A9"/>
<path d="M28.9219 32.6897C28.2119 32.9897 27.5719 33.4097 26.8619 33.7097C25.4019 34.3197 26.2619 34.1497 25.6819 35.4097C25.4619 35.9397 24.8319 36.2897 24.5019 36.9797C24.0719 37.9197 24.2919 38.2997 22.9519 38.3197C22.4219 39.4497 23.2419 41.2097 22.8119 42.4697C23.2219 42.3897 23.5819 42.5797 23.9619 42.6397C23.9319 42.8197 24.0219 43.0797 23.9919 43.2497C24.2119 43.2197 24.5319 43.3497 24.7519 43.2997C24.6019 44.3597 23.9319 44.3197 23.4119 45.0197C22.8619 45.7397 22.9519 46.2297 22.9119 47.1897C20.8319 46.4297 20.8419 48.5397 23.0319 48.5397C23.4919 49.7497 23.3819 52.3497 22.4319 53.1397C22.1319 53.3697 20.7519 53.7897 20.3419 53.7997C19.4919 53.8297 19.1719 53.6597 18.6919 52.8597C17.8219 52.9497 17.8919 53.2797 17.5619 53.7697C17.0819 54.4497 17.5719 54.5097 16.6619 55.0397C15.5919 55.6697 14.8519 55.8797 15.4819 57.4197C16.6119 57.5297 17.2319 56.8997 18.3119 57.0197C18.2919 55.4297 21.3219 57.4597 20.8419 55.3497C21.8719 54.6597 23.4219 55.4297 24.6219 55.4997C24.5919 55.6697 24.6819 55.9197 24.6519 56.1097C25.9719 56.1697 27.2619 55.9997 26.5719 54.3197C26.3719 53.8397 25.8319 53.6097 25.6719 53.1197C25.5219 52.5897 25.6719 51.7097 25.7119 51.1697C27.6419 51.1097 25.8819 49.1097 26.1019 48.2797C28.2519 48.4197 27.9419 45.6597 28.0019 44.1697C28.0719 43.0497 27.9619 42.7397 27.4819 41.8697C27.0019 40.9297 26.9819 40.7997 27.0119 39.6197C29.1419 38.7697 31.8619 40.1697 32.9019 37.6397C33.0519 37.2497 33.0519 36.0797 32.7519 35.9197C32.4519 35.7697 31.6719 36.5097 31.3219 36.5997C29.9519 36.9497 29.0119 35.9697 27.8019 36.0497C27.5119 35.0297 28.1419 35.0297 28.6019 34.3997C28.9819 33.8497 29.262 33.3797 29.592 32.8097C29.392 32.7797 29.1719 32.7797 28.9619 32.7897" fill="#F4A76F"/>
<path d="M0.72168 141.35C1.43168 141.35 2.14167 141.3 2.84167 141.29C3.35167 141.29 3.46167 141.22 3.80167 140.94C4.17167 140.64 4.26168 140.66 4.81168 140.66C5.57168 140.66 6.31168 140.72 6.97168 140.47C7.28168 140.36 7.53168 140.39 7.85168 140.31C8.27168 140.22 8.10168 139.97 8.38168 139.83C8.56168 140.49 9.28168 140.58 9.82168 140.66C10.5417 140.77 10.1317 140.94 9.72168 141.21C8.92168 141.75 9.37168 143.02 8.79168 143.81C8.56168 144.12 8.29168 144.57 8.02168 144.83C7.66167 145.16 7.28168 144.97 6.92168 145.23C6.48168 145.54 6.70168 146.03 6.53168 146.49C6.38168 146.87 6.10168 147.12 6.02168 147.54C5.96168 147.92 6.04168 148.33 5.50168 148.33C5.23168 147.98 4.86168 147.59 4.56168 147.24C4.31168 146.94 3.68168 146.72 3.52168 146.41C3.35168 146.05 3.72168 145.48 3.77168 145.14C3.80168 144.84 3.80167 144.32 3.66167 144.05C3.32167 143.41 2.47167 143.28 2.09167 142.63C2.04167 142.53 2.01168 142.34 1.93168 142.26C1.77168 142.1 1.63168 142.19 1.46168 142.08C1.19168 141.93 1.05168 141.36 0.72168 141.35Z" fill="#F4A76F"/>
</svg>
