<svg width="15" height="15" viewBox="0 0 15 15" fill="none" xmlns="http://www.w3.org/2000/svg">
<path d="M3.10449 8.08594C3.83366 8.8151 4.71908 9.17969 5.76074 9.17969C6.80241 9.17969 7.68783 8.8151 8.41699 8.08594C9.14616 7.35677 9.51074 6.47135 9.51074 5.42969C9.51074 4.38802 9.14616 3.5026 8.41699 2.77344C7.68783 2.04427 6.80241 1.67969 5.76074 1.67969C4.71908 1.67969 3.83366 2.04427 3.10449 2.77344C2.37533 3.5026 2.01074 4.38802 2.01074 5.42969C2.01074 6.47135 2.37533 7.35677 3.10449 8.08594ZM10.7607 9.17969L14.9014 13.3203L13.6514 14.5703L9.51074 10.4297V9.76562L9.27637 9.53125C8.28678 10.3906 7.11491 10.8203 5.76074 10.8203C4.25033 10.8203 2.96126 10.2995 1.89355 9.25781C0.851888 8.21615 0.331055 6.9401 0.331055 5.42969C0.331055 3.91927 0.851888 2.64323 1.89355 1.60156C2.96126 0.533854 4.25033 0 5.76074 0C7.27116 0 8.5472 0.533854 9.58887 1.60156C10.6305 2.64323 11.1514 3.91927 11.1514 5.42969C11.1514 5.97656 11.0212 6.60156 10.7607 7.30469C10.5003 7.98177 10.2008 8.52865 9.8623 8.94531L10.0967 9.17969H10.7607Z" fill="#343A40"/>
</svg>
