<svg width="22" height="23" viewBox="0 0 22 23" fill="none" xmlns="http://www.w3.org/2000/svg">
<g clip-path="url(#clip0_4872_2498)">
<path d="M0.243569 6.76414C0.344399 5.21182 1.59244 3.99528 3.14612 3.9183C5.39596 3.80684 8.61162 3.67241 11.0345 3.67241C13.4574 3.67241 16.6731 3.80684 18.9229 3.9183C20.4766 3.99528 21.7246 5.21182 21.8255 6.76414C21.9221 8.25138 22.0173 10.0814 22.0173 11.5172C22.0173 12.9531 21.9221 14.7831 21.8255 16.2703C21.7246 17.8227 20.4766 19.0392 18.9229 19.1162C16.6731 19.2276 13.4574 19.3621 11.0345 19.3621C8.61162 19.3621 5.39596 19.2276 3.14612 19.1162C1.59244 19.0392 0.344399 17.8226 0.243569 16.2703C0.146966 14.7831 0.0517578 12.9531 0.0517578 11.5172C0.0517578 10.0814 0.146966 8.25138 0.243569 6.76414Z" fill="#D4009B"/>
<path d="M8.68066 8.37929V14.6551L14.9565 11.5172L8.68066 8.37929Z" fill="white"/>
</g>
<defs>
<clipPath id="clip0_4872_2498">
<rect width="21.9655" height="21.9655" fill="white" transform="translate(0.0341797 0.517242)"/>
</clipPath>
</defs>
</svg>
