<svg width="54" height="73" viewBox="0 0 54 73" fill="none" xmlns="http://www.w3.org/2000/svg">
<path d="M53.7726 8.13903C54.2239 9.34903 53.4422 10.209 52.4994 9.86903C52.1368 9.72903 52.1207 8.88903 51.8064 8.81903C51.194 8.65903 51.2101 9.11903 50.7669 9.20903C50.0013 9.41903 49.2439 9.71903 48.4945 9.91903C48.3816 10.489 48.0029 10.969 47.6725 11.319C47.1246 11.259 46.5927 10.769 46.6814 9.94903C46.5202 10.039 46.1737 10.259 46.0447 10.409C46.0367 10.609 46.0206 10.799 45.9964 11.009C43.6514 10.119 46.9392 7.96903 47.0359 7.19903C46.496 7.20903 46.2623 6.73903 46.2623 6.07903C44.8924 6.43903 45.5048 4.47903 45.4887 3.51903C44.5701 3.40903 44.143 4.78903 43.2324 4.51903C43.4258 3.22903 45.1583 1.71903 45.0052 0.649032C45.5774 0.339032 46.3026 0.479032 46.3026 1.38903C46.5847 1.23903 47.0278 1.26903 47.3018 1.10903C47.6806 2.77903 46.9956 3.82903 46.9473 5.24903C47.2374 5.14903 47.6483 5.36903 47.9384 5.27903C48.1077 5.85903 48.4864 6.04903 48.9699 5.87903C48.9699 5.32903 49.0263 4.81903 49.1472 4.31903C50.4526 4.81903 50.8072 4.45903 50.9442 6.36903C51.4841 6.39903 52.0481 6.36903 52.588 6.39903C52.6283 7.90903 53.4503 7.27903 53.7726 8.13903Z" fill="#F4A76F"/>
<path d="M25.3397 20.8001C25.4042 21.2501 25.4042 21.9001 25.3397 22.3501C23.2607 21.8301 25.0416 25.5601 24.1632 26.5101C22.745 28.0501 23.2123 23.7201 23.0109 23.2001C21.2219 22.4301 20.2469 23.3301 18.7964 24.1101C18.7722 23.6601 18.5547 23.2301 18.6191 22.7301C17.0961 22.5701 15.5812 22.5701 15.6537 24.7601C13.9051 24.8501 13.9292 28.4101 14.2435 29.9001C13.5586 30.3601 12.93 29.7801 13.0831 28.8001C12.9058 28.8301 12.6641 28.7201 12.4868 28.7501C12.4868 28.5801 12.4465 28.6601 12.3176 28.6101C12.0517 27.6801 12.1322 26.4101 12.4868 25.6201C13.1153 24.2501 13.9695 24.5701 13.752 23.0601C13.5747 21.8601 12.5835 21.2501 13.4619 19.9701C14.2193 18.8601 14.6867 19.8001 15.6779 19.6601C16.3548 19.5501 17.0397 18.6801 17.5957 18.1801C18.0228 17.7701 17.8214 17.5201 18.3935 17.2501C18.7561 17.0801 19.4088 17.2801 19.8118 17.2501C20.4886 17.2101 21.7054 16.6201 22.2856 16.8101C23.1076 17.0701 23.1318 18.3301 24.0504 18.0701C24.3244 19.7201 23.1479 19.4401 23.0189 20.4501C22.9061 21.4701 24.7192 20.7501 25.3397 20.8001Z" fill="#F4A76F"/>
<path d="M13.5341 39.9001C13.6711 41.9301 13.0506 42.5301 11.8419 43.5201C11.302 43.9601 9.56138 45.9001 9.14235 44.2101C8.39293 44.1301 7.52265 45.4801 7.20032 46.2401C6.55566 46.3701 6.08022 45.9401 5.57255 45.9101C4.76672 45.8501 4.87953 45.9601 4.29934 46.1501C3.6708 46.3201 3.70303 46.7101 2.86497 46.2401C2.52653 46.0201 2.23643 45.6301 1.90604 45.3401C1.04381 44.6201 0.197691 43.7701 0.648953 42.1001C1.01963 40.7301 1.90604 40.7801 1.19691 39.1101C1.64012 38.5801 2.09138 38.1701 2.70381 38.0801C2.46206 37.1801 2.28478 35.4001 2.71992 34.5801C3.01808 34.7401 5.53226 35.8901 5.40332 36.2201C5.35497 36.3901 5.1374 36.9501 5.00847 37.1201C4.49274 37.3201 4.16235 37.7901 3.89643 38.4101C5.8707 38.0001 5.97546 40.3901 6.08827 42.0901C7.63546 42.3101 6.91022 41.4001 7.36954 40.3601C7.76439 39.4201 8.24789 39.5901 9.16653 39.5401C10.7057 39.4601 12.0836 40.0001 13.5341 39.9001Z" fill="#F4A76F"/>
<path d="M19.1776 63.1659C19.371 64.6859 18.9036 64.8259 18.0333 65.5159C17.6063 65.8759 17.3242 66.0059 16.9697 66.4959C16.5829 67.0659 16.5506 67.7259 16.0994 68.0859C15.4547 68.6159 13.8431 67.9259 13.3596 68.5259C13.0292 68.9359 13.424 69.8459 13.2709 70.3359C12.9889 71.2159 11.7399 71.9259 11.063 72.0159C10.9179 71.3959 11.1516 70.9059 11.2402 70.2259C11.2966 69.7359 11.1838 68.7059 11.3289 68.2559C11.5706 67.5159 12.9405 65.9159 13.3999 65.3959C14.9067 63.7259 16.8488 62.5959 19.1776 63.1659Z" fill="#F4A76F"/>
<path d="M9.52451 59.2061C10.0564 60.6361 8.38023 60.2761 7.89674 60.8061C7.47771 61.2661 7.65499 62.0961 7.29237 62.5861C6.30926 63.9361 5.06829 63.6861 4.75402 61.9061C4.46393 61.9861 4.06101 61.7861 3.76285 61.8561C3.64198 60.6961 4.26247 59.9061 4.02878 58.6961C4.87489 58.6661 9.10548 58.0361 9.52451 59.2061Z" fill="#F4A76F"/>
</svg>
